# xmcd
#
# Track frame offsets: 
#        150
#        15060
#        27135
#        43285
#        62160
#        89722
#        105210
#        124375
#        161797
#        188460
#        200385
#        214972
#
# Disc length: 3149 seconds
#
# Revision: 0
# Processed by: cddbd v1.4PL0 Copyright (c) Steve Scherf et al.
# Submitted via: ExactAudioCopy v0.90b4
#
DISCID=9e0c4b0c
DTITLE=Goldman Brothers - Day or Night
DYEAR=1998
DGENRE=Blues
TTITLE0=Supernatural
TTITLE1=lost Highway
TTITLE2=Dark Horses
TTITLE3=Boomer´s Story
TTITLE4=Ship at Sea
TTITLE5=Day Or Night
TTITLE6=Barbed Wire
TTITLE7=Good Shepherd
TTITLE8=Thik And Thin
TTITLE9=Just A Friend
TTITLE10=Show Me Something
TTITLE11=Talk With Me
EXTD=
EXTT0=
EXTT1=
EXTT2=
EXTT3=
EXTT4=
EXTT5=
EXTT6=
EXTT7=
EXTT8=
EXTT9=
EXTT10=
EXTT11=
PLAYORDER=
